<mxfile host="app.diagrams.net" modified="2023-05-10T09:54:32.420Z" agent="Mozilla/5.0 (Windows NT 10.0; Win64; x64) AppleWebKit/537.36 (KHTML, like Gecko) Chrome/112.0.0.0 Safari/537.36" version="21.1.7" etag="ntMUXZMeHHrBUrY5_zaD" type="github">
  <diagram name="Page-1" id="154nVbJeSXU7DMEWu4Vo">
    <mxGraphModel>
      <root>
        <mxCell id="0" />
        <mxCell id="1" parent="0" />
      </root>
    </mxGraphModel>
  </diagram>
</mxfile>
